<svg width="414" height="50" viewBox="0 0 414 50" fill="none" xmlns="http://www.w3.org/2000/svg">
<path d="M0 20C0 8.9543 8.9543 0 20 0H394C405.046 0 414 8.95431 414 20V50H0V20Z" fill="black" fill-opacity="0.4"/>
<circle cx="350.5" cy="24.5" r="11.5" stroke="#3A4151" stroke-width="2"/>
<circle cx="350.5" cy="22.0549" r="4.33639" stroke="#3A4151" stroke-width="2"/>
<path d="M357.727 33.7374C357.727 29.1939 355.043 26.5107 350.5 26.5107C345.957 26.5107 343.273 29.1939 343.273 33.7374" stroke="#3A4151" stroke-width="2"/>
<path d="M57.2842 14.2935L47.9077 21.472C47.4134 21.8505 47.1235 22.4375 47.1235 23.0601L47.1235 29.0178L47.1235 33.6372C47.1235 34.7418 48.019 35.6372 49.1235 35.6372L52.862 35.6372C53.9665 35.6372 54.862 34.7418 54.862 33.6372L54.862 28.6504C54.862 27.5458 55.7574 26.6504 56.862 26.6504L59.8303 26.6504C60.9349 26.6504 61.8303 27.5458 61.8303 28.6504L61.8303 33.6372C61.8303 34.7418 62.7257 35.6372 63.8303 35.6372L67.8765 35.6372C68.981 35.6372 69.8765 34.7418 69.8765 33.6372L69.8765 23.0601C69.8765 22.4375 69.5866 21.8505 69.0923 21.472L59.7158 14.2935C58.9983 13.7442 58.0017 13.7442 57.2842 14.2935Z" stroke="#FBFBFB" stroke-width="2"/>
<rect x="194.018" y="15.8242" width="6.81208" height="17.3514" rx="2" stroke="#3A4151" stroke-width="2"/>
<rect x="200.831" y="27.906" width="6.81208" height="12.3387" rx="2" transform="rotate(-90 200.831 27.906)" stroke="#3A4151" stroke-width="2"/>
<rect x="213.169" y="15.8242" width="6.81208" height="17.3514" rx="2" stroke="#3A4151" stroke-width="2"/>
<rect x="219.982" y="18.9089" width="4.39001" height="11.182" rx="2" stroke="#3A4151" stroke-width="2"/>
<rect x="189.628" y="18.9089" width="4.39001" height="11.182" rx="2" stroke="#3A4151" stroke-width="2"/>
</svg>
